<svg width="118" height="26" viewBox="0 0 118 26" fill="none" xmlns="http://www.w3.org/2000/svg">
<path d="M22.8258 0V0.662121C22.0823 0.824747 21.2808 1.15 20.4212 1.63788C19.5848 2.12576 18.702 2.91566 17.7727 4.00757L11.2212 11.8136L13.2424 8.92121L21.5364 21.85C21.8616 22.3843 22.2101 22.8141 22.5818 23.1394C22.9535 23.4646 23.4414 23.7434 24.0455 23.9758V24.6727C23.2323 24.6263 22.3263 24.603 21.3273 24.603C20.3283 24.5798 19.4222 24.5682 18.6091 24.5682C18.1212 24.5682 17.5288 24.5798 16.8318 24.603C16.1348 24.603 15.252 24.6263 14.1833 24.6727V23.9758C15.1359 23.9293 15.7051 23.8015 15.8909 23.5924C16.1 23.3601 16.0187 22.9652 15.647 22.4076L10.5939 14.2182C10.2687 13.6838 9.97828 13.2889 9.72273 13.0333C9.46717 12.7545 9.21162 12.5687 8.95606 12.4758C8.7005 12.3596 8.36364 12.2899 7.94546 12.2667V11.5348C8.96768 11.5116 9.87374 11.2328 10.6636 10.6985C11.4768 10.1641 12.3596 9.35101 13.3121 8.25909L15.3682 5.78485C16.251 4.73939 16.7621 3.84495 16.9015 3.10151C17.0641 2.33485 16.9131 1.74242 16.4485 1.32424C16.0071 0.90606 15.3217 0.685353 14.3924 0.662121V0C14.9732 0.023232 15.5192 0.046464 16.0303 0.0696961C16.5646 0.0696961 17.1106 0.0813121 17.6682 0.104544C18.249 0.104544 18.8763 0.104544 19.55 0.104544C20.2237 0.104544 20.8278 0.0929281 21.3621 0.0696961C21.9197 0.046464 22.4076 0.023232 22.8258 0ZM10.7682 0V0.696969C10.0247 0.720201 9.45556 0.813131 9.06061 0.975757C8.68889 1.11515 8.44495 1.39394 8.32879 1.81212C8.21263 2.20707 8.15455 2.83434 8.15455 3.69394V20.9788C8.15455 21.8152 8.21263 22.4424 8.32879 22.8606C8.46818 23.2788 8.72374 23.5576 9.09546 23.697C9.46717 23.8364 10.0247 23.9293 10.7682 23.9758V24.6727C10.1409 24.6263 9.35101 24.603 8.39849 24.603C7.44596 24.5798 6.48182 24.5682 5.50606 24.5682C4.39091 24.5682 3.33384 24.5798 2.33485 24.603C1.35909 24.603 0.580808 24.6263 0 24.6727V23.9758C0.743434 23.9293 1.30101 23.8364 1.67273 23.697C2.04444 23.5576 2.28838 23.2788 2.40455 22.8606C2.54394 22.4424 2.61364 21.8152 2.61364 20.9788V3.69394C2.61364 2.83434 2.54394 2.20707 2.40455 1.81212C2.28838 1.39394 2.03283 1.11515 1.63788 0.975757C1.26616 0.813131 0.720202 0.720201 0 0.696969V0C0.580808 0.023232 1.35909 0.046464 2.33485 0.0696961C3.33384 0.0929281 4.39091 0.104544 5.50606 0.104544C6.48182 0.104544 7.44596 0.0929281 8.39849 0.0696961C9.35101 0.046464 10.1409 0.023232 10.7682 0Z" fill="#0A0A0A"/>
<path d="M32.5926 6.16818C34.2886 6.16818 35.7754 6.48182 37.0532 7.10909C38.331 7.73636 39.33 8.74697 40.0502 10.1409C40.7704 11.5348 41.1305 13.3818 41.1305 15.6818C41.1305 17.9818 40.7704 19.8288 40.0502 21.2227C39.33 22.5934 38.331 23.5924 37.0532 24.2197C35.7754 24.847 34.2886 25.1606 32.5926 25.1606C30.9431 25.1606 29.4678 24.847 28.1668 24.2197C26.8891 23.5924 25.8784 22.5934 25.135 21.2227C24.4148 19.8288 24.0547 17.9818 24.0547 15.6818C24.0547 13.3818 24.4148 11.5348 25.135 10.1409C25.8784 8.74697 26.8891 7.73636 28.1668 7.10909C29.4678 6.48182 30.9431 6.16818 32.5926 6.16818ZM32.5926 6.86515C31.6633 6.86515 30.885 7.56212 30.2577 8.95606C29.6305 10.3268 29.3168 12.5687 29.3168 15.6818C29.3168 18.7949 29.6305 21.0369 30.2577 22.4076C30.885 23.7783 31.6633 24.4636 32.5926 24.4636C33.5451 24.4636 34.3234 23.7783 34.9274 22.4076C35.5547 21.0369 35.8683 18.7949 35.8683 15.6818C35.8683 12.5687 35.5547 10.3268 34.9274 8.95606C34.3234 7.56212 33.5451 6.86515 32.5926 6.86515Z" fill="#0A0A0A"/>
<path d="M52.0182 6.16818C52.9242 6.16818 53.749 6.27273 54.4924 6.48182C55.2591 6.66768 55.8864 6.91162 56.3742 7.21363C56.9783 7.58535 57.4429 8.05 57.7682 8.60757C58.1167 9.14192 58.2909 9.76919 58.2909 10.4894C58.2909 11.3025 58.0353 11.9763 57.5242 12.5106C57.0131 13.0217 56.351 13.2773 55.5379 13.2773C54.7247 13.2773 54.0742 13.0449 53.5864 12.5803C53.0985 12.1157 52.8545 11.4884 52.8545 10.6985C52.8545 9.95505 53.0869 9.33939 53.5515 8.85151C54.0161 8.3404 54.5505 8.00353 55.1545 7.84091C54.9687 7.60858 54.6899 7.41111 54.3182 7.24848C53.9465 7.08586 53.5283 7.00454 53.0636 7.00454C52.3434 7.00454 51.7045 7.21364 51.147 7.63182C50.6126 8.05 50.1596 8.63081 49.7879 9.37424C49.4162 10.1177 49.1257 10.9889 48.9167 11.9879C48.7308 12.9869 48.6379 14.0788 48.6379 15.2636C48.6379 17.0525 48.8586 18.4581 49.3 19.4803C49.7646 20.5025 50.3454 21.2227 51.0424 21.6409C51.7626 22.0591 52.506 22.2682 53.2727 22.2682C53.7141 22.2682 54.1904 22.1985 54.7015 22.0591C55.2358 21.9197 55.7702 21.6409 56.3045 21.2227C56.8621 20.8045 57.3732 20.2121 57.8379 19.4455L58.4303 19.6545C58.1747 20.5141 57.7566 21.3737 57.1757 22.2333C56.5949 23.0929 55.8399 23.8015 54.9106 24.3591C53.9813 24.8934 52.8429 25.1606 51.4954 25.1606C49.9853 25.1606 48.6146 24.8354 47.3833 24.1848C46.1752 23.5111 45.1995 22.4889 44.4561 21.1182C43.7358 19.7242 43.3757 17.9354 43.3757 15.7515C43.3757 13.6606 43.7475 11.9066 44.4909 10.4894C45.2576 9.04899 46.2914 7.96869 47.5924 7.24848C48.8934 6.52828 50.3687 6.16818 52.0182 6.16818Z" fill="#0A0A0A"/>
<path d="M68.8881 6.16818C70.5841 6.16818 72.0709 6.48182 73.3487 7.10909C74.6265 7.73636 75.6255 8.74697 76.3457 10.1409C77.0659 11.5348 77.426 13.3818 77.426 15.6818C77.426 17.9818 77.0659 19.8288 76.3457 21.2227C75.6255 22.5934 74.6265 23.5924 73.3487 24.2197C72.0709 24.847 70.5841 25.1606 68.8881 25.1606C67.2386 25.1606 65.7634 24.847 64.4623 24.2197C63.1846 23.5924 62.174 22.5934 61.4305 21.2227C60.7103 19.8288 60.3502 17.9818 60.3502 15.6818C60.3502 13.3818 60.7103 11.5348 61.4305 10.1409C62.174 8.74697 63.1846 7.73636 64.4623 7.10909C65.7634 6.48182 67.2386 6.16818 68.8881 6.16818ZM68.8881 6.86515C67.9588 6.86515 67.1805 7.56212 66.5533 8.95606C65.926 10.3268 65.6123 12.5687 65.6123 15.6818C65.6123 18.7949 65.926 21.0369 66.5533 22.4076C67.1805 23.7783 67.9588 24.4636 68.8881 24.4636C69.8406 24.4636 70.6189 23.7783 71.223 22.4076C71.8502 21.0369 72.1639 18.7949 72.1639 15.6818C72.1639 12.5687 71.8502 10.3268 71.223 8.95606C70.6189 7.56212 69.8406 6.86515 68.8881 6.86515Z" fill="#0A0A0A"/>
<path d="M92.2167 6.16818C93.1925 6.16818 93.9824 6.29596 94.5864 6.55151C95.2137 6.78384 95.7016 7.10909 96.05 7.52727C96.4218 7.96869 96.6889 8.53788 96.8516 9.23485C97.0374 9.93182 97.1303 10.8727 97.1303 12.0576V21.4318C97.1303 22.4076 97.293 23.0697 97.6182 23.4182C97.9667 23.7667 98.5475 23.9409 99.3607 23.9409V24.6727C98.9192 24.6495 98.2571 24.6263 97.3743 24.603C96.4915 24.5566 95.6202 24.5333 94.7607 24.5333C93.8778 24.5333 93.0066 24.5566 92.147 24.603C91.3107 24.6263 90.6718 24.6495 90.2304 24.6727V23.9409C90.9273 23.9409 91.4152 23.7667 91.694 23.4182C91.9728 23.0697 92.1122 22.4076 92.1122 21.4318V10.5939C92.1122 10.0131 92.0541 9.51364 91.9379 9.09545C91.8218 8.65404 91.6127 8.31717 91.3107 8.08485C91.0086 7.82929 90.5556 7.70151 89.9516 7.70151C89.3243 7.70151 88.7435 7.87576 88.2091 8.22424C87.698 8.57273 87.2798 9.06061 86.9546 9.68788C86.6526 10.2919 86.5016 10.9773 86.5016 11.7439V21.4318C86.5016 22.4076 86.641 23.0697 86.9197 23.4182C87.2218 23.7667 87.7096 23.9409 88.3834 23.9409V24.6727C87.9652 24.6495 87.3495 24.6263 86.5364 24.603C85.7465 24.5566 84.9218 24.5333 84.0622 24.5333C83.1793 24.5333 82.2733 24.5566 81.344 24.603C80.4147 24.6263 79.7177 24.6495 79.2531 24.6727V23.9409C80.0662 23.9409 80.6354 23.7667 80.9607 23.4182C81.3091 23.0697 81.4834 22.4076 81.4834 21.4318V10.4545C81.4834 9.40909 81.3208 8.64242 80.9955 8.15454C80.6935 7.64343 80.1127 7.38788 79.2531 7.38788V6.65606C79.9965 6.72576 80.7167 6.76061 81.4137 6.76061C82.3894 6.76061 83.2955 6.72576 84.1319 6.65606C84.9915 6.56313 85.7814 6.43535 86.5016 6.27273V9.40909C87.0824 8.22424 87.8723 7.38788 88.8713 6.9C89.8703 6.41212 90.9854 6.16818 92.2167 6.16818Z" fill="#0A0A0A"/>
<path d="M109.301 6.16818C110.997 6.16818 112.484 6.48182 113.762 7.10909C115.04 7.73636 116.039 8.74697 116.759 10.1409C117.479 11.5348 117.839 13.3818 117.839 15.6818C117.839 17.9818 117.479 19.8288 116.759 21.2227C116.039 22.5934 115.04 23.5924 113.762 24.2197C112.484 24.847 110.997 25.1606 109.301 25.1606C107.652 25.1606 106.177 24.847 104.876 24.2197C103.598 23.5924 102.587 22.5934 101.844 21.2227C101.124 19.8288 100.764 17.9818 100.764 15.6818C100.764 13.3818 101.124 11.5348 101.844 10.1409C102.587 8.74697 103.598 7.73636 104.876 7.10909C106.177 6.48182 107.652 6.16818 109.301 6.16818ZM109.301 6.86515C108.372 6.86515 107.594 7.56212 106.967 8.95606C106.339 10.3268 106.026 12.5687 106.026 15.6818C106.026 18.7949 106.339 21.0369 106.967 22.4076C107.594 23.7783 108.372 24.4636 109.301 24.4636C110.254 24.4636 111.032 23.7783 111.636 22.4076C112.264 21.0369 112.577 18.7949 112.577 15.6818C112.577 12.5687 112.264 10.3268 111.636 8.95606C111.032 7.56212 110.254 6.86515 109.301 6.86515Z" fill="#0A0A0A"/>
</svg>
